<svg viewBox="0 0 800 500" preserveAspectRatio="none" xmlns="http://www.w3.org/2000/svg" xmlns:xlink="http://www.w3.org/1999/xlink" width="100%" id="blobSvg">
  <g transform="translate(163.13282775878906, 10.912343978881836)">
    <path class="blob" d="M457,284.5Q463,319,439.5,344.5Q416,370,402,405Q388,440,355.5,458Q323,476,286.5,472.5Q250,469,219,454.5Q188,440,147,444Q106,448,84.5,417Q63,386,38,356.5Q13,327,14,288.5Q15,250,26.5,215.5Q38,181,47,145Q56,109,88.5,90.5Q121,72,148.5,47.5Q176,23,213,24.5Q250,26,283,36.5Q316,47,355,49.5Q394,52,420.5,79.5Q447,107,460.5,142Q474,177,462.5,213.5Q451,250,457,284.5Z" fill="#ffccd5"></path>
  </g>
</svg>